REM DIRINDEX 1\2\4,1\2\5,1\3\6,1\3\7,1\3\8
REM DIRNAME folder01,folder02,folder03,folder04,folder05,folder06,folder07,folder08
TITLE ""
FILE "LV2_026_WORDS.mp3" MP3
  TRACK 01 AUDIO
    TITLE "0:"
    INDEX 01 00:00:00
  TRACK 02 AUDIO
    TITLE "6:cjc094_0960"
    INDEX 01 00:00:01
  TRACK 03 AUDIO
    TITLE "0:"
    INDEX 01 00:02:67
  TRACK 04 AUDIO
    TITLE "7:cjc094_0961"
    INDEX 01 00:03:47
  TRACK 05 AUDIO
    TITLE "0:"
    INDEX 01 00:04:48
  TRACK 06 AUDIO
    TITLE "8:cjc094_0962"
    INDEX 01 00:04:60
  TRACK 07 AUDIO
    TITLE "0:"
    INDEX 01 00:07:62
  TRACK 08 AUDIO
    TITLE "7:cjc094_0963"
    INDEX 01 00:08:36
  TRACK 09 AUDIO
    TITLE "0:"
    INDEX 01 00:09:34
  TRACK 10 AUDIO
    TITLE "8:cjc094_0964"
    INDEX 01 00:09:44
  TRACK 11 AUDIO
    TITLE "0:"
    INDEX 01 00:13:37
  TRACK 12 AUDIO
    TITLE "7:cjc094_0965"
    INDEX 01 00:14:15
  TRACK 13 AUDIO
    TITLE "0:"
    INDEX 01 00:15:17
  TRACK 14 AUDIO
    TITLE "8:cjc094_0966"
    INDEX 01 00:15:28
  TRACK 15 AUDIO
    TITLE "0:"
    INDEX 01 00:16:57
  TRACK 16 AUDIO
    TITLE "7:cjc094_0967"
    INDEX 01 00:17:33
  TRACK 17 AUDIO
    TITLE "0:"
    INDEX 01 00:18:31
  TRACK 18 AUDIO
    TITLE "8:cjc094_0968"
    INDEX 01 00:18:46
  TRACK 19 AUDIO
    TITLE "0:"
    INDEX 01 00:19:56
  TRACK 20 AUDIO
    TITLE "7:cjc094_0969"
    INDEX 01 00:20:28
  TRACK 21 AUDIO
    TITLE "0:"
    INDEX 01 00:21:31
  TRACK 22 AUDIO
    TITLE "8:cjc094_0970"
    INDEX 01 00:21:45
  TRACK 23 AUDIO
    TITLE "0:"
    INDEX 01 00:22:58
  TRACK 24 AUDIO
    TITLE "7:cjc094_0971"
    INDEX 01 00:23:22
  TRACK 25 AUDIO
    TITLE "0:"
    INDEX 01 00:24:27
  TRACK 26 AUDIO
    TITLE "8:cjc094_0972"
    INDEX 01 00:24:43
  TRACK 27 AUDIO
    TITLE "0:"
    INDEX 01 00:25:60
  TRACK 28 AUDIO
    TITLE "7:cjc094_0973"
    INDEX 01 00:26:32
  TRACK 29 AUDIO
    TITLE "0:"
    INDEX 01 00:27:39
  TRACK 30 AUDIO
    TITLE "8:cjc094_0974"
    INDEX 01 00:27:57
  TRACK 31 AUDIO
    TITLE "0:"
    INDEX 01 00:30:01
  TRACK 32 AUDIO
    TITLE "7:cjc094_0975"
    INDEX 01 00:30:48
  TRACK 33 AUDIO
    TITLE "0:"
    INDEX 01 00:31:55
  TRACK 34 AUDIO
    TITLE "8:cjc094_0976"
    INDEX 01 00:31:71
  TRACK 35 AUDIO
    TITLE "0:"
    INDEX 01 00:32:74
  TRACK 36 AUDIO
    TITLE "7:cjc094_0977"
    INDEX 01 00:33:42
  TRACK 37 AUDIO
    TITLE "0:"
    INDEX 01 00:34:40
  TRACK 38 AUDIO
    TITLE "8:cjc094_0978"
    INDEX 01 00:34:55
  TRACK 39 AUDIO
    TITLE "0:"
    INDEX 01 00:36:13
  TRACK 40 AUDIO
    TITLE "7:cjc094_0979"
    INDEX 01 00:36:66
  TRACK 41 AUDIO
    TITLE "0:"
    INDEX 01 00:37:59
  TRACK 42 AUDIO
    TITLE "8:cjc094_0980"
    INDEX 01 00:37:73
  TRACK 43 AUDIO
    TITLE "0:"
    INDEX 01 00:39:03
  TRACK 44 AUDIO
    TITLE "7:cjc094_0981"
    INDEX 01 00:39:51
  TRACK 45 AUDIO
    TITLE "0:"
    INDEX 01 00:40:64
  TRACK 46 AUDIO
    TITLE "8:cjc094_0982"
    INDEX 01 00:40:73
  TRACK 47 AUDIO
    TITLE "0:"
    INDEX 01 00:42:19
  TRACK 48 AUDIO
    TITLE "7:cjc094_0983"
    INDEX 01 00:42:68
  TRACK 49 AUDIO
    TITLE "0:"
    INDEX 01 00:44:01
  TRACK 50 AUDIO
    TITLE "8:cjc094_0984"
    INDEX 01 00:44:11
  TRACK 51 AUDIO
    TITLE "0:"
    INDEX 01 00:45:57
  TRACK 52 AUDIO
    TITLE "7:cjc094_0985"
    INDEX 01 00:46:27
  TRACK 53 AUDIO
    TITLE "0:"
    INDEX 01 00:47:36
  TRACK 54 AUDIO
    TITLE "8:cjc094_0986"
    INDEX 01 00:47:48
  TRACK 55 AUDIO
    TITLE "0:"
    INDEX 01 00:48:51
  TRACK 56 AUDIO
    TITLE "7:cjc094_0987"
    INDEX 01 00:49:27
  TRACK 57 AUDIO
    TITLE "0:"
    INDEX 01 00:50:33
  TRACK 58 AUDIO
    TITLE "8:cjc094_0988"
    INDEX 01 00:50:42
  TRACK 59 AUDIO
    TITLE "0:"
    INDEX 01 00:53:04
  TRACK 60 AUDIO
    TITLE "7:cjc094_0989"
    INDEX 01 00:53:51
  TRACK 61 AUDIO
    TITLE "0:"
    INDEX 01 00:54:62
  TRACK 62 AUDIO
    TITLE "8:cjc094_0990"
    INDEX 01 00:54:72
  TRACK 63 AUDIO
    TITLE "0:"
    INDEX 01 00:56:06
  TRACK 64 AUDIO
    TITLE "7:cjc094_0991"
    INDEX 01 00:56:53
  TRACK 65 AUDIO
    TITLE "0:"
    INDEX 01 00:57:60
  TRACK 66 AUDIO
    TITLE "8:cjc094_0992"
    INDEX 01 00:57:72
  TRACK 67 AUDIO
    TITLE "0:"
    INDEX 01 00:59:12
  TRACK 68 AUDIO
    TITLE "7:cjc094_0993"
    INDEX 01 00:59:61
  TRACK 69 AUDIO
    TITLE "0:"
    INDEX 01 01:00:60
  TRACK 70 AUDIO
    TITLE "8:cjc094_0994"
    INDEX 01 01:00:68
  TRACK 71 AUDIO
    TITLE "0:"
    INDEX 01 01:03:51
  TRACK 72 AUDIO
    TITLE "7:cjc094_0995"
    INDEX 01 01:04:23
  TRACK 73 AUDIO
    TITLE "0:"
    INDEX 01 01:05:44
  TRACK 74 AUDIO
    TITLE "8:cjc094_0996"
    INDEX 01 01:05:62
  TRACK 75 AUDIO
    TITLE "0:"
    INDEX 01 01:07:00
  TRACK 76 AUDIO
    TITLE "7:cjc094_0997"
    INDEX 01 01:07:49
  TRACK 77 AUDIO
    TITLE "0:"
    INDEX 01 01:08:74
  TRACK 78 AUDIO
    TITLE "8:cjc094_0998"
    INDEX 01 01:09:14
  TRACK 79 AUDIO
    TITLE "0:"
    INDEX 01 01:10:67
  TRACK 80 AUDIO
    TITLE "7:cjc094_0999"
    INDEX 01 01:11:41
  TRACK 81 AUDIO
    TITLE "0:"
    INDEX 01 01:12:64
  TRACK 82 AUDIO
    TITLE "8:cjc094_1000"
    INDEX 01 01:13:02
  TRACK 83 AUDIO
    TITLE "0:"
    INDEX 01 01:14:51
